<svg xmlns="http://www.w3.org/2000/svg" viewBox="0 0 512 512">
  <defs>
    <radialGradient id="g" cx="50%" cy="42%" r="70%">
      <stop offset="0" stop-color="#193b32"/>
      <stop offset="1" stop-color="#06100e"/>
    </radialGradient>
    <linearGradient id="gold" x1="0" y1="0" x2="1" y2="1">
      <stop stop-color="#ffe7a3"/>
      <stop offset=".5" stop-color="#d8a84e"/>
      <stop offset="1" stop-color="#9f6726"/>
    </linearGradient>
  </defs>
  <rect width="512" height="512" rx="116" fill="url(#g)"/>
  <circle cx="256" cy="256" r="176" fill="none" stroke="#d8a84e" stroke-opacity=".2" stroke-width="2"/>
  <circle cx="256" cy="256" r="126" fill="none" stroke="#d8a84e" stroke-opacity=".13" stroke-width="2"/>
  <path d="M152 148h86c0 68-12 105-43 123v78h37v18h-92v-18h37v-78c-31-18-43-55-43-123Zm18 24c3 38 10 61 25 75 15-14 22-37 25-75Z" fill="url(#gold)"/>
  <path d="M274 148h86c0 68-12 105-43 123v78h37v18h-92v-18h37v-78c-31-18-43-55-43-123Zm18 24c3 38 10 61 25 75 15-14 22-37 25-75Z" fill="url(#gold)"/>
  <path d="m237 200 38 20" stroke="#ffe7a3" stroke-width="12" stroke-linecap="round"/>
  <circle cx="256" cy="96" r="4" fill="#ffe7a3"/>
  <circle cx="220" cy="108" r="2" fill="#ffe7a3" opacity=".7"/>
  <circle cx="291" cy="112" r="3" fill="#ffe7a3" opacity=".8"/>
</svg>
